<svg xmlns="http://www.w3.org/2000/svg" viewBox="0 0 108 108" id="vector">
    <g id="group" transform="translate(21.6 21.6) scale(0.1265625 0.1265625)">
        <path id="path"
            d="M 394.891 233.243 L 394.891 278.757 L 365.783 281.459 C 362.929 293.769 358.038 305.316 351.501 315.719 L 370.194 338.236 L 338.112 370.307 L 315.551 351.57 C 305.137 358.063 293.6 362.91 281.301 365.743 L 278.599 394.894 L 233.238 394.894 L 230.525 365.656 C 218.259 362.791 206.766 357.922 196.395 351.407 L 173.758 370.198 L 141.687 338.116 L 160.522 315.435 C 154.051 305.064 149.214 293.572 146.382 281.316 L 117.1 278.603 L 117.1 233.395 L 146.382 230.682 C 149.214 218.427 154.051 206.934 160.522 196.563 L 141.687 173.882 L 173.758 141.8 L 196.395 160.591 C 206.766 154.077 218.258 149.207 230.525 146.342 L 233.238 117.104 L 278.599 117.104 L 281.301 146.255 C 293.6 149.087 305.136 153.935 315.551 160.428 L 338.112 141.691 L 370.194 173.762 L 351.501 196.279 C 358.037 206.682 362.928 218.23 365.783 230.539 L 394.891 233.243 Z M 322.449 256 C 322.449 219.356 292.642 189.549 255.998 189.549 C 219.354 189.549 189.547 219.356 189.547 256 C 189.547 292.644 219.354 322.451 255.998 322.451 C 292.642 322.451 322.449 292.644 322.449 256 Z"
            fill="#f5a50e" />
        <path id="path_1"
            d="M 255.998 334.979 L 245.104 318.639 L 255.998 302.299 C 281.522 302.299 302.296 281.525 302.296 256.001 C 302.296 230.477 281.522 209.703 255.998 209.703 L 245.104 193.363 L 255.998 177.023 C 299.551 177.023 334.977 212.449 334.977 256.002 C 334.977 299.555 299.55 334.979 255.998 334.979 Z"
            fill="#874a00" />
        <path id="path_2"
            d="M 255.998 302.298 L 255.998 334.979 C 212.445 334.979 177.019 299.553 177.019 256 C 177.019 212.447 212.445 177.021 255.998 177.021 L 255.998 209.702 C 230.474 209.702 209.7 230.476 209.7 256 C 209.7 281.524 230.474 302.298 255.998 302.298 Z"
            fill="#bd7600" />
        <path id="path_3"
            d="M 460.253 245.106 L 447.616 350.774 L 484.959 350.839 L 485.013 350.861 C 497.138 321.644 503.826 289.606 503.826 255.999 L 460.253 245.106 Z"
            fill="#615879" />
        <path id="path_4"
            d="M 438.466 256 L 454.806 234.213 L 471.147 256 C 471.147 285.445 466.692 313.682 458.51 339.881 L 431.113 350.884 L 424.577 325.829 C 433.531 304.313 438.466 280.718 438.466 256 Z"
            fill="#8f85a8" />
        <path id="path_5"
            d="M 431.243 80.765 C 431.232 80.765 396.688 82.628 396.688 82.628 L 471.147 256 L 503.828 256 C 503.828 187.566 476.092 125.603 431.243 80.765 Z"
            fill="#8f85a8" />
        <path id="path_6"
            d="M 471.147 256 L 438.466 256 C 438.466 205.693 418.008 160.071 384.957 127.041 L 385.022 126.976 L 380.548 87.876 L 418.476 93.522 C 451.288 137.02 471.147 193.841 471.147 256 Z"
            fill="#bfb5da" />
        <path id="path_7"
            d="M 258.776 8.192 L 418.476 93.522 L 431.232 80.766 C 386.994 36.505 326.098 8.922 258.776 8.192 Z"
            fill="#00796b" />
        <path id="path_8"
            d="M 385.022 126.976 L 384.957 127.041 C 351.928 93.99 306.305 73.532 255.998 73.532 C 205.691 73.532 160.069 93.99 127.039 127.041 L 126.974 126.976 L 82.788 126.361 L 80.774 80.766 C 125.612 35.905 187.575 8.17 255.998 8.17 C 256.924 8.17 257.85 8.181 258.776 8.192 C 322.525 9.118 379.575 41.984 418.476 93.522 L 385.022 126.976 Z"
            fill="#48a999" />
        <path id="path_9"
            d="M 126.974 126.976 L 127.039 127.041 C 93.988 160.071 73.53 205.693 73.53 256 L 40.849 288.681 L 8.168 256 C 8.168 187.566 35.903 125.603 80.763 80.765 C 80.774 80.765 126.974 126.976 126.974 126.976 Z"
            fill="#00796b" />
        <path id="path_10"
            d="M 255.998 438.468 L 288.679 471.149 L 255.998 503.83 C 119.13 503.83 8.168 392.867 8.168 256 L 73.53 256 C 73.53 356.613 155.384 438.468 255.998 438.468 Z"
            fill="#bfb5da" />
        <path id="path_11"
            d="M 484.96 350.84 L 458.51 339.881 L 258.776 503.808 C 360.86 502.697 448.118 439.862 485.015 350.862 L 484.96 350.84 Z"
            fill="#362f4d" />
        <path id="path_12"
            d="M 255.998 503.83 L 255.998 438.468 C 331.894 438.468 397.114 391.898 424.577 325.828 L 458.511 339.881 C 428.968 434.525 350.838 502.468 258.777 503.808 C 257.85 503.819 256.924 503.83 255.998 503.83 Z"
            fill="#615879" />
        <path id="path_13"
            d="M 255.998 310.468 C 286.032 310.468 310.466 286.034 310.466 256 C 310.466 225.966 286.032 201.532 255.998 201.532 C 225.964 201.532 201.53 225.966 201.53 256 C 201.53 286.034 225.964 310.468 255.998 310.468 Z M 255.998 217.872 C 277.022 217.872 294.126 234.976 294.126 256 C 294.126 277.024 277.022 294.128 255.998 294.128 C 234.974 294.128 217.87 277.024 217.87 256 C 217.87 234.976 234.974 217.872 255.998 217.872 Z"
            fill="#000000" />
        <path id="path_14"
            d="M 150.572 314.638 L 135.407 332.901 C 132.711 336.147 132.932 340.913 135.916 343.897 L 167.989 375.97 C 170.973 378.953 175.738 379.176 178.986 376.479 L 197.179 361.372 C 205.338 365.955 213.96 369.553 222.923 372.117 L 225.105 395.648 C 225.494 399.85 229.02 403.064 233.24 403.064 L 278.599 403.064 C 282.819 403.064 286.344 399.85 286.734 395.648 L 288.905 372.225 C 297.903 369.683 306.558 366.1 314.753 361.524 L 332.9 376.591 C 336.146 379.288 340.912 379.066 343.897 376.082 L 375.969 344.009 C 378.953 341.025 379.173 336.259 376.478 333.013 L 361.469 314.936 C 366.076 306.735 369.689 298.071 372.256 289.061 L 395.648 286.892 C 399.85 286.503 403.064 282.977 403.064 278.757 L 403.064 233.24 C 403.064 229.02 399.85 225.495 395.648 225.105 L 372.256 222.936 C 369.689 213.927 366.076 205.262 361.469 197.061 L 376.478 178.984 C 379.174 175.738 378.953 170.972 375.969 167.988 L 343.897 135.915 C 340.913 132.931 336.147 132.709 332.9 135.406 L 314.753 150.473 C 306.559 145.898 297.903 142.314 288.905 139.772 L 286.734 116.349 C 286.345 112.147 282.819 108.933 278.599 108.933 L 233.24 108.933 C 229.02 108.933 225.495 112.147 225.105 116.349 L 222.923 139.88 C 213.96 142.444 205.339 146.043 197.179 150.625 L 178.986 135.518 C 175.739 132.821 170.974 133.043 167.989 136.027 L 135.916 168.1 C 132.932 171.084 132.712 175.85 135.407 179.096 L 150.572 197.359 C 146.02 205.514 142.45 214.129 139.912 223.078 L 116.351 225.262 C 112.149 225.651 108.935 229.177 108.935 233.397 L 108.935 278.596 C 108.935 282.816 112.149 286.341 116.351 286.731 L 139.912 288.915 C 142.449 297.868 146.019 306.482 150.572 314.638 Z M 125.274 240.848 L 147.143 238.821 C 150.653 238.496 153.558 235.957 154.35 232.522 C 156.93 221.334 161.34 210.692 167.458 200.89 C 169.323 197.902 169.064 194.055 166.813 191.345 L 152.734 174.39 L 174.274 152.85 L 191.173 166.882 C 193.89 169.138 197.746 169.393 200.738 167.515 C 210.537 161.36 221.183 156.916 232.382 154.304 C 235.808 153.506 238.338 150.603 238.662 147.101 L 240.686 125.276 L 271.149 125.276 L 273.164 147.015 C 273.49 150.528 276.033 153.435 279.471 154.224 C 290.703 156.801 301.385 161.222 311.22 167.364 C 314.207 169.23 318.056 168.971 320.767 166.719 L 337.606 152.738 L 359.145 174.278 L 345.21 191.061 C 342.955 193.778 342.699 197.636 344.578 200.627 C 350.758 210.464 355.215 221.152 357.822 232.391 C 358.617 235.82 361.521 238.354 365.026 238.679 L 386.718 240.69 L 386.718 271.311 L 365.026 273.322 C 361.52 273.647 358.617 276.182 357.822 279.61 C 355.213 290.849 350.757 301.537 344.578 311.374 C 342.699 314.364 342.955 318.223 345.21 320.94 L 359.145 337.723 L 337.606 359.263 L 320.767 345.282 C 318.057 343.031 314.209 342.772 311.22 344.637 C 301.385 350.779 290.703 355.199 279.471 357.777 C 276.033 358.567 273.489 361.473 273.164 364.986 L 271.149 386.724 L 240.686 386.724 L 238.663 364.899 C 238.338 361.397 235.809 358.496 232.383 357.696 C 221.184 355.085 210.538 350.64 200.739 344.485 C 197.748 342.607 193.889 342.862 191.174 345.118 L 174.275 359.15 L 152.735 337.61 L 166.814 320.655 C 169.064 317.945 169.324 314.098 167.459 311.11 C 161.341 301.308 156.93 290.666 154.351 279.478 C 153.558 276.043 150.653 273.504 147.144 273.179 L 125.275 271.152 L 125.275 240.848 L 125.274 240.848 Z"
            fill="#000000" />
        <path id="path_15"
            d="M 437.019 74.981 C 388.667 26.628 324.38 0 256 0 C 187.62 0 123.333 26.628 74.981 74.981 C 26.628 123.332 0 187.62 0 256 C 0 324.38 26.628 388.668 74.981 437.019 C 123.333 485.372 187.62 512 256 512 C 324.38 512 388.667 485.372 437.019 437.019 C 485.372 388.668 512 324.38 512 256 C 512 187.62 485.372 123.332 437.019 74.981 Z M 480.411 340.111 L 435.1 321.342 C 441.672 303.385 445.604 284.17 446.451 264.17 L 495.504 264.17 C 494.608 290.804 489.347 316.347 480.411 340.111 Z M 431.054 92.501 C 469.368 133.496 493.488 187.906 495.505 247.83 L 446.452 247.83 C 444.485 201.418 425.851 159.249 396.387 127.168 L 431.054 92.501 Z M 419.499 80.946 L 384.832 115.613 C 350.878 84.429 305.626 65.362 256 65.362 C 206.374 65.362 161.122 84.429 127.168 115.614 L 92.501 80.946 C 135.353 40.897 192.858 16.34 256 16.34 C 319.142 16.34 376.647 40.897 419.499 80.946 Z M 65.548 247.83 L 16.495 247.83 C 18.514 187.906 42.632 133.497 80.946 92.501 L 115.613 127.168 C 86.15 159.248 67.515 201.418 65.548 247.83 Z M 16.495 264.17 L 65.54 264.17 C 67.342 305.821 82.873 346.012 109.735 378.129 C 112.629 381.59 117.783 382.049 121.243 379.155 C 124.705 376.259 125.164 371.107 122.268 367.646 C 96.11 336.367 81.702 296.716 81.702 256 C 81.702 159.892 159.891 81.702 256 81.702 C 352.109 81.702 430.298 159.892 430.298 256 C 430.298 352.108 352.109 430.298 256 430.298 C 215.283 430.298 175.633 415.89 144.354 389.73 C 140.891 386.833 135.74 387.294 132.846 390.755 C 129.952 394.216 130.41 399.369 133.871 402.263 C 165.989 429.126 206.178 444.657 247.83 446.458 L 247.83 495.503 C 122.164 491.273 20.727 389.836 16.495 264.17 Z M 264.17 495.505 L 264.17 446.452 C 337.081 443.361 399.517 399.13 428.816 336.426 L 474.145 355.202 C 437.418 435.646 357.47 492.362 264.17 495.505 Z"
            fill="#000000" />
        <path id="path_16"
            d="M 194.303 305.893 C 198.081 303.426 199.144 298.363 196.678 294.585 C 189.162 283.075 185.19 269.732 185.19 256 C 185.19 216.956 216.955 185.191 255.999 185.191 C 295.043 185.191 326.808 216.956 326.808 256 C 326.808 295.044 295.043 326.809 255.999 326.809 C 242.267 326.809 228.924 322.836 217.413 315.321 C 213.633 312.853 208.572 313.917 206.104 317.695 C 203.637 321.473 204.701 326.536 208.479 329.003 C 222.654 338.258 239.086 343.151 255.999 343.151 C 304.053 343.151 343.148 304.056 343.148 256.002 C 343.148 207.948 304.053 168.853 255.999 168.853 C 207.945 168.853 168.849 207.946 168.849 256 C 168.849 272.913 173.74 289.345 182.994 303.519 C 185.462 307.298 190.524 308.359 194.303 305.893 Z"
            fill="#000000" />
    </g>
</svg>
